<?xml version="1.0" encoding="UTF-8" standalone="no" ?>
<!DOCTYPE svg PUBLIC "-//W3C//DTD SVG 1.1//EN" "http://www.w3.org/Graphics/SVG/1.1/DTD/svg11.dtd">
<svg xmlns="http://www.w3.org/2000/svg" xmlns:xlink="http://www.w3.org/1999/xlink" version="1.1" width="354" height="354" viewBox="0 0 354 354" xml:space="preserve">
<desc>Created with Fabric.js 3.6.6</desc>
<defs>
</defs>
<g transform="matrix(1 0 0 1 176.94 177.64)"  >
<g style=""   >
		<g transform="matrix(1 0 0 1 -0.28 -0.29)" clip-path="url(#CLIPPATH_5)"  >
<clipPath id="CLIPPATH_5" >
	<rect transform="matrix(1 0 0 1 0 0.01)" x="-194.915" y="-176.12" rx="0" ry="0" width="389.83" height="352.24" />
</clipPath>
<circle style="stroke: rgb(189,163,91); stroke-width: 1.84; stroke-dasharray: none; stroke-linecap: butt; stroke-dashoffset: 0; stroke-linejoin: miter; stroke-miterlimit: 4; fill: none; fill-rule: nonzero; opacity: 1;"  cx="0" cy="0" r="129.3" />
</g>
		<g transform="matrix(0 -1 1 0 -0.32 -0.3)" clip-path="url(#CLIPPATH_6)"  >
<clipPath id="CLIPPATH_6" >
	<rect transform="matrix(0 1 -1 0 -0.02 0.04)" x="-194.915" y="-176.12" rx="0" ry="0" width="389.83" height="352.24" />
</clipPath>
<circle style="stroke: rgb(189,163,91); stroke-width: 1.84; stroke-dasharray: none; stroke-linecap: butt; stroke-dashoffset: 0; stroke-linejoin: miter; stroke-miterlimit: 4; fill: none; fill-rule: nonzero; opacity: 1;"  cx="0" cy="0" r="175.2" />
</g>
		<g transform="matrix(1 0 0 1 -0.29 43.48)"  >
<polygon style="stroke: none; stroke-width: 1; stroke-dasharray: none; stroke-linecap: butt; stroke-dashoffset: 0; stroke-linejoin: miter; stroke-miterlimit: 4; fill: rgb(75,74,74); fill-rule: nonzero; opacity: 1;"  points="0.19,31.93 -2.47,-31.93 2.48,-31.93 0.19,31.93 " />
</g>
		<g transform="matrix(1 0 0 1 58.67 55.63)" clip-path="url(#CLIPPATH_7)"  >
<clipPath id="CLIPPATH_7" >
	<rect transform="matrix(1 0 0 1 -58.95 -55.9)" x="-194.915" y="-176.12" rx="0" ry="0" width="389.83" height="352.24" />
</clipPath>
<path style="stroke: none; stroke-width: 1; stroke-dasharray: none; stroke-linecap: butt; stroke-dashoffset: 0; stroke-linejoin: miter; stroke-miterlimit: 4; fill: rgb(75,74,74); fill-rule: nonzero; opacity: 1;"  transform=" translate(-479.61, -353.26)" d="M 525.32 342.36 s -34.27 3.71 -51.27 8.45 c -27.2 7.58 -48.95 20.93 -48.95 20.93 c 0 0 24.74 -12.53 52.25 -17.87 c 17.96 -3.49 56.77 -6.98 56.77 -6.98 l -5.82 -12.1 l -5.68 1.44 l 2.7 6.13 Z" stroke-linecap="round" />
</g>
		<g transform="matrix(1 0 0 1 54.69 47.38)" clip-path="url(#CLIPPATH_8)"  >
<clipPath id="CLIPPATH_8" >
	<rect transform="matrix(1 0 0 1 -54.97 -47.66)" x="-194.915" y="-176.12" rx="0" ry="0" width="389.83" height="352.24" />
</clipPath>
<path style="stroke: none; stroke-width: 1; stroke-dasharray: none; stroke-linecap: butt; stroke-dashoffset: 0; stroke-linejoin: miter; stroke-miterlimit: 4; fill: rgb(75,74,74); fill-rule: nonzero; opacity: 1;"  transform=" translate(-475.63, -345.02)" d="M 526.64 332.05 l -7.91 -11.31 l -5.24 2.14 l 3.75 5.74 s -32.65 7.76 -48.31 14.48 c -25.05 10.74 -44.31 26.2 -44.31 26.2 c 0 0 22.31 -15 48.08 -23.57 c 16.83 -5.59 53.93 -13.68 53.93 -13.68" stroke-linecap="round" />
</g>
		<g transform="matrix(1 0 0 1 49.69 21.49)" clip-path="url(#CLIPPATH_9)"  >
<clipPath id="CLIPPATH_9" >
	<rect transform="matrix(1 0 0 1 -49.97 -21.76)" x="-194.915" y="-176.12" rx="0" ry="0" width="389.83" height="352.24" />
</clipPath>
<path style="stroke: none; stroke-width: 1; stroke-dasharray: none; stroke-linecap: butt; stroke-dashoffset: 0; stroke-linejoin: miter; stroke-miterlimit: 4; fill: rgb(75,74,74); fill-rule: nonzero; opacity: 1;"  transform=" translate(-470.63, -319.13)" d="M 467.93 336.59 c 15.91 -7.14 49.79 -19 49.79 -19 c 0 0 1.16 -0.32 -32.41 -45.93 c 0 0 -34.03 2.14 -58.57 25.93 c 24.41 -20.68 56.93 -23.65 56.93 -23.65 l 26.02 41.48 s -30.93 11.43 -45.51 19.57 c -23.34 13.02 -40.65 31.6 -40.65 31.6 c 0 0 20.04 -19.07 44.4 -30" stroke-linecap="round" />
</g>
		<g transform="matrix(1 0 0 1 -50.67 21.68)" clip-path="url(#CLIPPATH_10)"  >
<clipPath id="CLIPPATH_10" >
	<rect transform="matrix(1 0 0 1 50.39 -21.95)" x="-194.915" y="-176.12" rx="0" ry="0" width="389.83" height="352.24" />
</clipPath>
<path style="stroke: none; stroke-width: 1; stroke-dasharray: none; stroke-linecap: butt; stroke-dashoffset: 0; stroke-linejoin: miter; stroke-miterlimit: 4; fill: rgb(75,74,74); fill-rule: nonzero; opacity: 1;"  transform=" translate(-370.27, -319.31)" d="M 373.4 336.59 c -15.91 -7.14 -49.79 -19 -49.79 -19 c 0 0 -1.17 -0.32 32.41 -45.93 c 0 0 34.03 2.14 58.57 25.93 c -24.41 -20.68 -56.93 -23.65 -56.93 -23.65 l -26.02 41.48 s 30.93 11.43 45.51 19.57 c 23.34 13.02 39.79 31.98 39.79 31.98 c 0 0 -19.18 -19.44 -43.54 -30.37" stroke-linecap="round" />
</g>
		<g transform="matrix(1 0 0 1 -59.25 55.75)" clip-path="url(#CLIPPATH_11)"  >
<clipPath id="CLIPPATH_11" >
	<rect transform="matrix(1 0 0 1 58.97 -56.03)" x="-194.915" y="-176.12" rx="0" ry="0" width="389.83" height="352.24" />
</clipPath>
<path style="stroke: none; stroke-width: 1; stroke-dasharray: none; stroke-linecap: butt; stroke-dashoffset: 0; stroke-linejoin: miter; stroke-miterlimit: 4; fill: rgb(75,74,74); fill-rule: nonzero; opacity: 1;"  transform=" translate(-361.7, -353.39)" d="M 416.17 372 s -21.69 -13.62 -48.88 -21.2 c -17 -4.74 -51.27 -8.45 -51.27 -8.45 l 2.7 -6.13 l -5.68 -1.45 l -5.82 12.11 s 38.81 3.49 56.77 6.98 c 27.51 5.34 52.18 18.14 52.18 18.14" stroke-linecap="round" />
</g>
		<g transform="matrix(1 0 0 1 -55.36 47.53)" clip-path="url(#CLIPPATH_12)"  >
<clipPath id="CLIPPATH_12" >
	<rect transform="matrix(1 0 0 1 55.08 -47.8)" x="-194.915" y="-176.12" rx="0" ry="0" width="389.83" height="352.24" />
</clipPath>
<path style="stroke: none; stroke-width: 1; stroke-dasharray: none; stroke-linecap: butt; stroke-dashoffset: 0; stroke-linejoin: miter; stroke-miterlimit: 4; fill: rgb(75,74,74); fill-rule: nonzero; opacity: 1;"  transform=" translate(-365.58, -345.16)" d="M 416.47 369.59 s -19.03 -15.75 -44.08 -26.49 c -15.66 -6.71 -48.31 -14.48 -48.31 -14.48 l 4.11 -6.29 l -5.59 -1.59 l -7.91 11.31 s 37.1 8.09 53.93 13.68 c 25.77 8.57 47.85 23.86 47.85 23.86" stroke-linecap="round" />
</g>
		<g transform="matrix(1 0 0 1 -24.88 -23.56)" clip-path="url(#CLIPPATH_13)"  >
<clipPath id="CLIPPATH_13" >
	<rect transform="matrix(1 0 0 1 24.59 23.28)" x="-194.915" y="-176.12" rx="0" ry="0" width="389.83" height="352.24" />
</clipPath>
<path style="stroke: none; stroke-width: 1; stroke-dasharray: none; stroke-linecap: butt; stroke-dashoffset: 0; stroke-linejoin: miter; stroke-miterlimit: 4; fill: rgb(189,163,91); fill-rule: nonzero; opacity: 1;"  transform=" translate(-396.07, -274.08)" d="M 414.39 315.87 c -10.52 -8.15 -24.58 -20.7 -27.43 -30.06 c -0.73 -3.1 -0.84 -25.97 -0.54 -47.65 c 11.87 -1.58 20.99 -4.62 27.18 -7.27 l -0.09 -9.45 c -5.71 2.8 -16.5 7.05 -31.78 8.61 l -3.81 0.39 l -0.06 3.83 c 0 0.12 -0.19 12.16 -0.21 24.63 c -0.03 25.8 0.7 28.22 1.05 29.38 c 2.32 7.7 9.77 17 22.12 27.64 c 5.33 4.59 10.38 8.41 13.67 10.79 l -0.1 -10.82 Z" stroke-linecap="round" />
</g>
		<g transform="matrix(1 0 0 1 24.32 -23.44)" clip-path="url(#CLIPPATH_14)"  >
<clipPath id="CLIPPATH_14" >
	<rect transform="matrix(1 0 0 1 -24.61 23.17)" x="-194.915" y="-176.12" rx="0" ry="0" width="389.83" height="352.24" />
</clipPath>
<path style="stroke: none; stroke-width: 1; stroke-dasharray: none; stroke-linecap: butt; stroke-dashoffset: 0; stroke-linejoin: miter; stroke-miterlimit: 4; fill: rgb(189,163,91); fill-rule: nonzero; opacity: 1;"  transform=" translate(-445.27, -274.19)" d="M 463.67 258.87 c -0.02 -12.47 -0.21 -24.51 -0.21 -24.63 l -0.06 -3.83 l -3.81 -0.39 c -14.76 -1.5 -25.32 -5.51 -31.16 -8.3 l -0.14 9.4 c 6.17 2.6 15.1 5.49 26.62 7.03 c 0.3 21.68 0.19 44.55 -0.54 47.65 c -2.85 9.34 -16.84 21.85 -27.35 30 l -0.16 10.87 c 3.29 -2.38 8.34 -6.2 13.65 -10.78 c 12.35 -10.64 19.79 -19.94 22.11 -27.64 c 0.35 -1.16 1.08 -3.59 1.05 -29.38" stroke-linecap="round" />
</g>
		<g transform="matrix(1 0 0 1 0.04 -31.82)" clip-path="url(#CLIPPATH_15)"  >
<clipPath id="CLIPPATH_15" >
	<rect transform="matrix(1 0 0 1 -0.33 31.54)" x="-194.915" y="-176.12" rx="0" ry="0" width="389.83" height="352.24" />
</clipPath>
<path style="stroke: none; stroke-width: 1; stroke-dasharray: none; stroke-linecap: butt; stroke-dashoffset: 0; stroke-linejoin: miter; stroke-miterlimit: 4; fill: rgb(189,163,91); fill-rule: nonzero; opacity: 1;"  transform=" translate(-420.99, -265.82)" d="M 420.63 353.58 l -3.98 -17.19 l -1.12 -120.82 l -8.56 -0.54 l -0.31 0.43 c -0.68 0.94 -1.72 1.47 -2.86 1.47 c -1.94 0 -3.52 -1.58 -3.52 -3.53 c 0 -1.94 1.59 -3.52 3.53 -3.52 c 1.14 0 2.18 0.54 2.86 1.47 l 0.31 0.43 l 9.6 -0.59 l 0.23 -0.55 c 0.04 -0.1 0.09 -0.2 0.13 -0.29 c 0.11 -0.23 0.22 -0.47 0.28 -0.71 l 0.45 -1.62 c 0.18 -0.65 0.18 -1.62 0 -2.27 l -0.45 -1.62 c -0.09 -0.31 -0.09 -0.93 0 -1.24 l 0.46 -1.66 c 0.18 -0.65 0.18 -1.62 0 -2.26 l -0.46 -1.73 c -0.08 -0.31 -0.08 -0.93 0 -1.24 l 0.45 -1.58 c 0.18 -0.64 0.18 -1.62 0 -2.27 l -0.45 -1.62 c -0.02 -0.07 -0.03 -0.15 -0.04 -0.24 l -0.04 -0.39 l -0.3 -0.25 c -1.51 -1.25 -2.38 -3.09 -2.37 -5.05 c 0 -3.61 2.94 -6.54 6.55 -6.54 c 3.61 0 6.54 2.94 6.54 6.55 c 0 1.96 -0.87 3.8 -2.39 5.05 l -0.3 0.25 l -0.05 0.38 c -0.01 0.09 -0.03 0.18 -0.05 0.26 l -0.47 1.61 c -0.19 0.64 -0.2 1.62 -0.03 2.27 l 0.42 1.59 c 0.08 0.31 0.08 0.93 0 1.24 l -0.49 1.72 c -0.18 0.64 -0.19 1.61 -0.02 2.26 l 0.43 1.66 c 0.08 0.31 0.07 0.93 -0.02 1.24 l -0.47 1.61 c -0.19 0.64 -0.2 1.62 -0.03 2.27 l 0.43 1.62 c 0.06 0.24 0.17 0.48 0.27 0.71 c 0.04 0.09 0.08 0.18 0.12 0.27 l 0.23 0.56 l 9.86 0.63 l 0.31 -0.43 c 0.67 -0.92 1.73 -1.47 2.86 -1.47 c 1.94 0 3.52 1.58 3.52 3.53 c 0 1.94 -1.58 3.52 -3.52 3.52 c -1.13 0 -2.2 -0.55 -2.86 -1.47 l -0.31 -0.43 l -8.56 0.53 l -1.81 120.81 l -4.02 17.18 Z" stroke-linecap="round" />
</g>
		<g transform="matrix(1 0 0 1 -0.79 99.79)" clip-path="url(#CLIPPATH_16)"  >
<clipPath id="CLIPPATH_16" >
	<rect transform="matrix(1 0 0 1 0.5 -100.07)" x="-194.915" y="-176.12" rx="0" ry="0" width="389.83" height="352.24" />
</clipPath>
<path style="stroke: none; stroke-width: 1; stroke-dasharray: none; stroke-linecap: butt; stroke-dashoffset: 0; stroke-linejoin: miter; stroke-miterlimit: 4; fill: rgb(75,74,74); fill-rule: nonzero; opacity: 1;"  transform=" translate(-420.16, -397.43)" d="M 571.32 351 c 1.3 -0.8 2.24 -2.06 2.81 -3.78 c 0.57 -1.72 0.57 -3.29 0.02 -4.7 c -0.56 -1.42 -1.54 -2.36 -2.95 -2.82 c -2.35 -0.77 -4.44 0.49 -6.29 3.78 c -0.83 1.53 -1.66 2.6 -2.48 3.21 c -0.82 0.61 -1.68 0.77 -2.59 0.47 c -0.89 -0.29 -1.49 -0.9 -1.78 -1.81 c -0.3 -0.91 -0.25 -1.96 0.13 -3.13 c 0.37 -1.13 0.98 -2 1.82 -2.61 c 0.84 -0.61 1.87 -0.94 3.08 -0.97 l -0.31 -1.35 c -1.3 -0.01 -2.47 0.39 -3.53 1.21 c -1.06 0.82 -1.82 1.94 -2.29 3.34 c -0.51 1.53 -0.53 2.93 -0.07 4.19 c 0.46 1.26 1.29 2.09 2.5 2.49 c 1.27 0.42 2.42 0.29 3.46 -0.38 c 1.04 -0.67 2.02 -1.87 2.95 -3.59 c 0.79 -1.44 1.59 -2.45 2.41 -3.02 c 0.82 -0.57 1.72 -0.69 2.69 -0.38 c 0.95 0.32 1.64 1 2.05 2.06 c 0.42 1.06 0.4 2.26 -0.04 3.6 c -0.45 1.36 -1.2 2.35 -2.26 2.96 c -1.06 0.61 -2.36 0.82 -3.89 0.63 l 0.28 1.52 c 1.55 0.18 2.98 -0.13 4.29 -0.93 M 564.53 362.52 c 0.78 1.78 0.75 3.52 -0.1 5.24 c -0.78 1.75 -2.1 2.89 -3.96 3.42 c -1.86 0.54 -3.81 0.31 -5.84 -0.68 c -2.06 -0.97 -3.47 -2.32 -4.24 -4.06 c -0.77 -1.74 -0.74 -3.49 0.08 -5.23 c 0.82 -1.75 2.14 -2.88 3.97 -3.4 c 1.83 -0.53 3.77 -0.31 5.83 0.66 c 2.06 0.93 3.48 2.28 4.25 4.06 M 560.87 372.5 c 2.21 -0.71 3.79 -2.1 4.74 -4.19 c 1 -2.06 1.07 -4.17 0.2 -6.32 c -0.87 -2.16 -2.5 -3.77 -4.89 -4.86 c -2.36 -1.14 -4.64 -1.36 -6.86 -0.65 s -3.79 2.11 -4.74 4.19 c -1 2.06 -1.07 4.17 -0.19 6.32 c 0.87 2.16 2.5 3.78 4.89 4.86 c 2.36 1.14 4.64 1.36 6.86 0.65 M 537.25 383.79 l 1.58 -2.33 c 1.23 -1.83 2.73 -2.93 4.5 -3.31 c 1.76 -0.4 3.65 0.07 5.65 1.43 c 1.99 1.35 3.15 2.92 3.46 4.72 c 0.3 1.77 -0.17 3.57 -1.41 5.4 l -1.58 2.33 l -12.21 -8.24 Z M 552.22 390.22 c 1.41 -2.09 1.9 -4.23 1.47 -6.42 c -0.43 -2.19 -1.73 -4.01 -3.88 -5.47 c -2.16 -1.46 -4.33 -1.97 -6.52 -1.56 c -2.19 0.42 -3.99 1.67 -5.4 3.76 l -2.53 3.75 l 14.34 9.67 l 2.53 -3.75 Z M 528.18 396.6 l -0.53 -0.97 c 0.26 0.15 0.61 0.28 1.02 0.41 l 8.2 3.01 l -4.72 5.32 l -3.97 -7.78 Z M 535.37 410.69 l -2.6 -5.15 l 5.34 -6.03 l 5.42 1.97 l 1.03 -1.17 l -17.52 -6.31 l -1.08 1.22 l 8.37 16.63 l 1.03 -1.17 Z M 516.8 424.01 c 2.32 0.34 4.36 -0.26 6.13 -1.79 c 1.96 -1.66 2.63 -3.81 2.01 -6.47 l 2.57 2.17 l 0.78 -0.65 l -5.4 -6.4 l -5.95 5.02 l 0.83 0.98 l 4.82 -4.06 c 1.02 1.44 1.51 2.96 1.45 4.53 c -0.06 1.58 -0.69 2.88 -1.9 3.9 c -1.5 1.26 -3.19 1.74 -5.08 1.43 c -1.89 -0.31 -3.55 -1.32 -4.99 -3.03 c -1.41 -1.59 -2.07 -3.42 -1.99 -5.48 c 0.08 -2.06 0.82 -3.66 2.21 -4.79 c 1.99 -1.68 4.3 -1.99 6.94 -0.93 l 0.34 -1.36 c -1.41 -0.58 -2.82 -0.75 -4.22 -0.54 c -1.4 0.22 -2.69 0.83 -3.87 1.83 c -1.73 1.39 -2.66 3.32 -2.78 5.79 c -0.12 2.46 0.62 4.61 2.23 6.44 c 1.6 1.95 3.56 3.09 5.88 3.43 M 504.44 431.31 c -0.35 1.91 -1.35 3.34 -3 4.29 c -1.62 1.01 -3.36 1.22 -5.2 0.63 c -1.84 -0.59 -3.33 -1.87 -4.47 -3.82 c -1.17 -1.95 -1.59 -3.86 -1.25 -5.73 c 0.34 -1.87 1.33 -3.31 2.98 -4.3 c 1.65 -0.99 3.38 -1.19 5.2 -0.61 c 1.81 0.59 3.3 1.85 4.47 3.8 c 1.19 1.92 1.61 3.83 1.27 5.74 M 495.83 437.54 c 2.23 0.65 4.32 0.37 6.27 -0.84 c 1.98 -1.15 3.21 -2.86 3.69 -5.14 c 0.48 -2.28 0.03 -4.53 -1.35 -6.76 c -1.32 -2.26 -3.1 -3.72 -5.33 -4.37 c -2.23 -0.65 -4.32 -0.37 -6.27 0.84 c -1.98 1.15 -3.21 2.86 -3.69 5.14 c -0.48 2.28 -0.03 4.53 1.35 6.76 c 1.32 2.26 3.09 3.72 5.33 4.37 M 474.22 440.27 l 3.84 -1.64 c 1.33 -0.57 2.51 -0.74 3.54 -0.5 c 1.03 0.23 1.78 0.9 2.24 1.99 c 0.46 1.09 0.42 2.09 -0.13 3 c -0.55 0.91 -1.49 1.64 -2.81 2.2 l -3.84 1.64 l -2.85 -6.68 Z M 471.29 433.4 l 4.02 -1.71 c 1.11 -0.47 2.09 -0.61 2.94 -0.41 c 0.85 0.2 1.48 0.77 1.88 1.71 c 0.4 0.94 0.38 1.79 -0.07 2.54 c -0.45 0.75 -1.23 1.37 -2.33 1.84 l -4.02 1.71 l -2.42 -5.68 Z M 481.71 446.37 c 1.51 -0.65 2.62 -1.61 3.31 -2.9 c 0.7 -1.29 0.76 -2.59 0.2 -3.91 c -0.86 -2.01 -2.56 -2.86 -5.1 -2.53 c 0.71 -0.61 1.19 -1.35 1.45 -2.23 c 0.26 -0.88 0.2 -1.78 -0.19 -2.69 c -0.45 -1.04 -1.28 -1.73 -2.49 -2.07 c -1.22 -0.33 -2.56 -0.19 -4.03 0.44 l -5.43 2.32 l 6.78 15.91 l 5.5 -2.34 Z M 456.73 439.12 l 0.09 -1.1 c 0.14 0.27 0.35 0.57 0.63 0.9 l 5.2 7.02 l -6.87 1.85 l 0.96 -8.68 Z M 454.99 454.85 l 0.65 -5.73 l 7.78 -2.1 l 3.45 4.62 l 1.5 -0.41 l -11.16 -14.9 l -1.57 0.43 l -2.15 18.5 l 1.5 -0.41 Z M 433.38 457.9 l -0.08 -1.28 l -8.78 0.54 l -0.43 -7 l 8.01 -0.5 l -0.08 -1.28 l -8.01 0.5 l -0.4 -6.41 l 8.71 -0.54 l -0.08 -1.28 l -10.18 0.63 l 1.07 17.26 l 10.26 -0.64 Z M 403.45 441.5 l 2.81 0.21 c 2.2 0.17 3.9 0.92 5.11 2.27 c 1.22 1.33 1.74 3.2 1.56 5.62 c -0.18 2.4 -0.98 4.18 -2.38 5.35 c -1.39 1.13 -3.19 1.62 -5.39 1.45 l -2.81 -0.21 l 1.1 -14.68 Z M 405.28 457.69 c 2.51 0.19 4.61 -0.45 6.3 -1.9 s 2.63 -3.49 2.82 -6.08 c 0.2 -2.6 -0.43 -4.74 -1.88 -6.43 c -1.45 -1.69 -3.43 -2.64 -5.95 -2.83 l -4.51 -0.34 l -1.3 17.25 l 4.51 0.34 Z M 376.75 449.08 c -1.65 1.02 -3.38 1.24 -5.2 0.66 c -1.84 -0.52 -3.16 -1.67 -3.95 -3.43 c -0.8 -1.77 -0.85 -3.72 -0.17 -5.87 c 0.66 -2.17 1.8 -3.77 3.41 -4.77 c 1.61 -1.01 3.34 -1.23 5.19 -0.67 c 1.84 0.56 3.16 1.71 3.94 3.44 c 0.78 1.74 0.84 3.69 0.18 5.86 c -0.62 2.17 -1.76 3.77 -3.4 4.79 M 366.35 446.88 c 1.02 2.09 2.63 3.45 4.83 4.09 c 2.18 0.7 4.28 0.46 6.28 -0.71 c 2.01 -1.17 3.38 -3.02 4.11 -5.53 c 0.79 -2.5 0.68 -4.79 -0.34 -6.88 c -1.02 -2.09 -2.63 -3.45 -4.83 -4.09 c -2.18 -0.7 -4.28 -0.46 -6.29 0.71 c -2.01 1.17 -3.38 3.02 -4.1 5.53 c -0.79 2.5 -0.68 4.79 0.34 6.88 M 345.01 439.61 l 3.56 -7.36 l 8.45 4.09 l -3.56 7.36 l 1.34 0.65 l 7.53 -15.57 l -1.34 -0.65 l -3.41 7.05 l -8.45 -4.09 l 3.41 -7.05 l -1.33 -0.65 l -7.53 15.57 l 1.33 0.65 Z M 326.21 425.15 c 0.33 2.36 1.46 4.16 3.39 5.4 c 1.39 0.94 2.76 1.42 4.1 1.45 c 1.34 0.03 2.77 -0.33 4.3 -1.09 l -0.47 -1.24 c -1.33 0.71 -2.57 1.06 -3.71 1.04 c -1.14 -0.01 -2.29 -0.41 -3.43 -1.18 c -1.64 -1.07 -2.58 -2.58 -2.82 -4.54 s 0.27 -3.84 1.52 -5.64 c 1.14 -1.75 2.71 -2.88 4.72 -3.39 c 2 -0.51 3.74 -0.24 5.23 0.8 c 1.09 0.74 1.87 1.62 2.32 2.65 s 0.61 2.34 0.45 3.93 l 1.36 -0.03 c 0.24 -1.51 0.06 -2.93 -0.53 -4.26 c -0.6 -1.34 -1.55 -2.45 -2.86 -3.33 c -1.79 -1.27 -3.89 -1.63 -6.31 -1.08 c -2.42 0.55 -4.29 1.84 -5.61 3.89 c -1.43 2.06 -1.97 4.27 -1.64 6.63 M 321.67 405.09 l 0.97 -0.53 c -0.15 0.26 -0.28 0.61 -0.41 1.02 l -3.01 8.2 l -5.32 -4.72 l 7.78 -3.97 Z M 307.58 412.28 l 5.15 -2.6 l 6.03 5.34 l -1.97 5.42 l 1.16 1.03 l 6.31 -17.52 l -1.22 -1.08 l -16.63 8.37 l 1.17 1.03 Z M 307.65 388.37 l 3.52 4.08 c 0.95 1.1 1.41 2.16 1.38 3.18 c -0.03 1.02 -0.53 1.96 -1.52 2.81 c -0.99 0.85 -1.99 1.22 -3.01 1.09 c -1.02 -0.12 -2 -0.73 -2.95 -1.83 l -3.52 -4.08 l 6.09 -5.27 Z M 295.53 398.83 l 5.05 -4.36 l 3.55 4.11 c 1.17 1.36 2.47 2.13 3.89 2.31 c 1.42 0.18 2.74 -0.26 3.98 -1.33 c 1.23 -1.07 1.86 -2.31 1.89 -3.74 c 0.03 -1.43 -0.54 -2.82 -1.72 -4.18 l -4.52 -5.24 l -13.09 11.31 l 0.97 1.12 Z M 283.97 380.61 c -0.17 1.52 0.25 3.03 1.26 4.54 c 1.01 1.51 2.24 2.47 3.7 2.91 s 2.8 0.24 4.03 -0.59 c 2.05 -1.38 2.35 -3.8 0.89 -7.29 c -0.69 -1.6 -1.03 -2.91 -1.01 -3.93 c 0.02 -1.02 0.42 -1.8 1.22 -2.33 c 0.78 -0.52 1.62 -0.62 2.53 -0.29 c 0.9 0.33 1.7 1 2.39 2.03 c 0.66 0.99 0.97 2 0.94 3.04 c -0.03 1.04 -0.41 2.05 -1.12 3.03 l 1.26 0.59 c 0.81 -1.02 1.21 -2.19 1.22 -3.53 c 0 -1.34 -0.41 -2.63 -1.23 -3.86 c -0.9 -1.34 -1.99 -2.22 -3.26 -2.63 c -1.28 -0.41 -2.44 -0.27 -3.5 0.44 c -1.11 0.74 -1.72 1.73 -1.82 2.96 c -0.11 1.23 0.23 2.74 1.02 4.54 c 0.65 1.51 0.95 2.76 0.89 3.76 c -0.06 1 -0.51 1.78 -1.36 2.35 c -0.84 0.56 -1.8 0.68 -2.88 0.36 c -1.09 -0.32 -2.03 -1.07 -2.81 -2.25 c -0.8 -1.19 -1.11 -2.39 -0.94 -3.61 c 0.17 -1.21 0.8 -2.36 1.9 -3.45 l -1.37 -0.72 c -1.1 1.11 -1.73 2.43 -1.91 3.95 M 278.02 372.11 l 1.15 -0.58 l -3.95 -7.86 l 6.27 -3.15 l 3.6 7.17 l 1.15 -0.58 l -3.6 -7.18 l 5.74 -2.88 l 3.92 7.79 l 1.15 -0.58 l -4.58 -9.12 l -15.45 7.76 l 4.61 9.18 Z M 281.39 338.14 l 0.91 2.67 c 0.71 2.09 0.68 3.95 -0.09 5.59 c -0.75 1.65 -2.27 2.86 -4.56 3.63 c -2.28 0.77 -4.23 0.74 -5.85 -0.1 c -1.59 -0.84 -2.74 -2.3 -3.45 -4.39 l -0.9 -2.67 l 13.95 -4.73 Z M 267.21 346.16 c 0.81 2.39 2.22 4.07 4.22 5.05 c 2 0.98 4.24 1.05 6.7 0.22 s 4.19 -2.25 5.19 -4.25 c 0.99 -2 1.08 -4.19 0.27 -6.58 l -1.45 -4.28 l -16.38 5.56 l 1.45 4.28 Z" stroke-linecap="round" />
</g>
		<g transform="matrix(1 0 0 1 0.03 -92.69)" clip-path="url(#CLIPPATH_17)"  >
<clipPath id="CLIPPATH_17" >
	<rect transform="matrix(1 0 0 1 -0.31 92.41)" x="-194.915" y="-176.12" rx="0" ry="0" width="389.83" height="352.24" />
</clipPath>
<path style="stroke: none; stroke-width: 1; stroke-dasharray: none; stroke-linecap: butt; stroke-dashoffset: 0; stroke-linejoin: miter; stroke-miterlimit: 4; fill: rgb(75,74,74); fill-rule: nonzero; opacity: 1;"  transform=" translate(-420.97, -204.95)" d="M 577.71 274.42 c 0.42 -0.33 0.85 -0.71 1.3 -1.12 c 0.44 -0.42 0.85 -0.84 1.22 -1.25 c 0.37 -0.42 0.71 -0.82 1.02 -1.2 c 0.31 -0.39 0.53 -0.71 0.66 -0.97 c 0.39 -0.69 0.59 -1.38 0.6 -2.06 c 0 -0.69 -0.1 -1.54 -0.32 -2.55 c -0.13 -0.5 -0.23 -0.94 -0.31 -1.31 c -0.08 -0.37 -0.17 -0.74 -0.26 -1.11 c -0.09 -0.34 -0.18 -0.73 -0.29 -1.15 c -0.1 -0.4 -0.22 -0.88 -0.37 -1.47 c -0.66 0.17 -1.56 0.38 -2.7 0.65 c -1.14 0.27 -2.33 0.56 -3.57 0.87 c -1.24 0.31 -2.47 0.62 -3.68 0.92 c -1.19 0.3 -2.19 0.55 -3.01 0.75 l -8.79 2.2 c -0.77 0.19 -1.49 0.4 -2.18 0.61 c -0.69 0.21 -1.15 0.46 -1.39 0.75 c -0.48 0.54 -0.74 1.2 -0.77 1.98 c -0.03 0.78 -0.02 1.47 0.02 2.08 l -0.4 0.1 l -3.23 -12.87 l 0.4 -0.1 c 0.25 0.67 0.55 1.29 0.89 1.88 c 0.34 0.59 0.93 1.1 1.77 1.53 c 0.17 0.1 0.41 0.14 0.73 0.13 c 0.32 0 0.68 -0.04 1.07 -0.1 c 0.39 -0.06 0.81 -0.13 1.27 -0.23 c 0.45 -0.1 0.89 -0.2 1.31 -0.31 c 0.37 -0.09 0.86 -0.21 1.47 -0.35 c 0.61 -0.14 1.29 -0.29 2.03 -0.47 c 0.74 -0.17 1.51 -0.36 2.3 -0.55 c 0.79 -0.2 1.54 -0.39 2.26 -0.57 l 13.11 -3.29 c -0.14 -0.56 -0.26 -1.04 -0.37 -1.47 c -0.1 -0.4 -0.2 -0.78 -0.29 -1.15 c -0.09 -0.34 -0.18 -0.71 -0.29 -1.08 c -0.11 -0.38 -0.23 -0.82 -0.35 -1.32 c -0.28 -1 -0.6 -1.79 -0.98 -2.39 c -0.37 -0.59 -0.89 -1.1 -1.56 -1.52 c -0.24 -0.17 -0.58 -0.34 -1.02 -0.52 c -0.44 -0.18 -0.92 -0.37 -1.43 -0.57 c -0.51 -0.2 -1.05 -0.37 -1.62 -0.52 c -0.57 -0.15 -1.11 -0.25 -1.63 -0.29 l 0.03 -0.39 l 7.82 -0.7 c 0.02 0.64 0.06 1.23 0.1 1.76 c 0.05 0.54 0.18 1.29 0.4 2.28 c 0.22 1.01 0.43 1.91 0.61 2.71 c 0.18 0.8 0.37 1.56 0.56 2.3 s 0.37 1.49 0.57 2.26 c 0.2 0.79 0.42 1.68 0.66 2.65 c 0.25 0.98 0.46 1.85 0.65 2.61 c 0.2 0.79 0.4 1.56 0.6 2.29 c 0.2 0.74 0.4 1.5 0.62 2.29 c 0.21 0.79 0.44 1.68 0.69 2.69 c 0.25 0.87 0.5 1.57 0.76 2.1 c 0.26 0.54 0.56 1.09 0.9 1.65 l -7.4 3.2 l -0.21 -0.33 Z M 569.15 233.36 c 0.75 -1.26 1.11 -2.61 1.1 -4.06 c -0.02 -0.72 -0.14 -1.43 -0.36 -2.14 c -0.23 -0.71 -0.51 -1.42 -0.86 -2.12 c -0.25 -0.51 -0.46 -0.9 -0.64 -1.16 s -0.32 -0.47 -0.42 -0.63 c -0.16 0.05 -0.3 0.08 -0.43 0.1 c -0.13 0.02 -0.28 0.06 -0.47 0.11 c -0.18 0.06 -0.43 0.15 -0.75 0.28 c -0.32 0.12 -0.76 0.31 -1.34 0.56 c -0.87 0.39 -1.92 0.88 -3.14 1.47 c -1.23 0.59 -2.43 1.17 -3.6 1.74 c -1.17 0.57 -2.2 1.08 -3.08 1.51 s -1.42 0.69 -1.61 0.79 c 0.49 1 0.98 1.93 1.47 2.78 c 0.49 0.85 1.06 1.59 1.7 2.21 c 1.3 1.3 2.77 2.07 4.42 2.29 c 1.64 0.23 3.23 -0.04 4.77 -0.79 c 1.42 -0.69 2.5 -1.67 3.25 -2.93 M 564.98 241.11 c -0.88 0.07 -1.71 0 -2.51 -0.2 c -0.8 -0.2 -1.55 -0.52 -2.26 -0.96 c -0.72 -0.44 -1.36 -0.93 -1.92 -1.47 c -0.58 -0.57 -1.12 -1.21 -1.63 -1.93 c -0.51 -0.72 -0.98 -1.47 -1.43 -2.23 c -0.45 -0.76 -0.86 -1.53 -1.23 -2.28 c -0.36 -0.73 -0.68 -1.39 -0.97 -1.98 c -0.78 0.38 -1.46 0.71 -2.02 0.99 c -0.54 0.26 -1.01 0.5 -1.43 0.7 c -0.42 0.2 -0.8 0.4 -1.15 0.58 c -0.35 0.19 -0.73 0.38 -1.15 0.58 c -0.77 0.41 -1.43 0.76 -1.98 1.06 c -0.55 0.3 -0.95 0.66 -1.2 1.09 c -0.22 0.35 -0.36 0.89 -0.4 1.6 c -0.04 0.72 0.16 1.59 0.6 2.61 l -0.37 0.18 l -5.74 -11.73 l 0.37 -0.18 c 0.4 0.56 0.83 1.08 1.3 1.54 c 0.47 0.47 0.98 0.76 1.53 0.89 c 0.21 0.05 0.47 0.04 0.8 -0.03 c 0.33 -0.07 0.69 -0.18 1.07 -0.32 c 0.39 -0.14 0.79 -0.3 1.22 -0.48 c 0.43 -0.18 0.84 -0.36 1.23 -0.55 c 0.34 -0.17 0.81 -0.39 1.4 -0.66 c 0.59 -0.28 1.24 -0.58 1.94 -0.9 c 0.7 -0.33 1.42 -0.67 2.15 -1.03 c 0.76 -0.37 1.47 -0.72 2.13 -1.04 l 7.15 -3.5 c 0.44 -0.21 0.88 -0.44 1.33 -0.67 c 0.45 -0.23 0.86 -0.47 1.25 -0.7 c 0.39 -0.23 0.72 -0.48 1.01 -0.72 c 0.29 -0.25 0.47 -0.48 0.54 -0.7 c 0.21 -0.56 0.24 -1.16 0.1 -1.8 c -0.15 -0.64 -0.33 -1.31 -0.56 -2.02 l 0.37 -0.18 c 0.07 0.15 0.22 0.44 0.43 0.88 c 0.23 0.46 0.5 1.01 0.82 1.62 c 0.32 0.62 0.66 1.29 1.01 2.03 c 0.36 0.73 0.72 1.46 1.09 2.17 c 0.36 0.71 0.7 1.39 1.01 2.03 c 0.32 0.66 0.59 1.21 0.81 1.65 c 0.79 1.61 1.41 3.08 1.86 4.41 c 0.45 1.32 0.64 2.69 0.57 4.09 c -0.06 1.36 -0.46 2.66 -1.18 3.9 c -0.73 1.24 -1.83 2.21 -3.29 2.93 c -0.9 0.44 -1.79 0.7 -2.67 0.76 M 559.01 207.76 c -0.57 -0.43 -1.22 -0.61 -1.96 -0.52 c -0.48 0.07 -1.03 0.3 -1.63 0.7 c -0.61 0.39 -1.17 0.76 -1.7 1.09 c -0.56 0.39 -1.11 0.77 -1.66 1.14 c -0.56 0.37 -1.11 0.75 -1.67 1.14 c -0.56 0.39 -1.14 0.8 -1.74 1.22 c -0.58 0.41 -1.21 0.85 -1.9 1.34 l -7.85 5.51 c -0.74 0.52 -1.49 0.78 -2.26 0.79 c -0.77 0.01 -1.59 -0.12 -2.44 -0.38 c -1.06 -0.32 -1.98 -0.78 -2.76 -1.38 c -0.78 -0.6 -1.4 -1.22 -1.86 -1.86 c -0.25 -0.36 -0.45 -0.74 -0.61 -1.15 c -0.15 -0.41 -0.24 -0.81 -0.27 -1.21 c -0.03 -0.4 0.05 -0.78 0.23 -1.16 c 0.18 -0.38 0.49 -0.72 0.91 -1.01 c 0.54 -0.38 1.11 -0.48 1.73 -0.31 c 0.62 0.17 1.1 0.51 1.46 1.02 c 0.31 0.45 0.42 0.94 0.33 1.49 c -0.1 0.55 -0.37 0.98 -0.81 1.29 c -0.51 0.36 -0.99 0.46 -1.45 0.32 c -0.45 -0.15 -0.88 -0.43 -1.27 -0.85 l -0.1 0.07 c -0.08 0.22 -0.09 0.46 -0.02 0.71 c 0.06 0.26 0.16 0.47 0.28 0.65 c 0.39 0.56 0.89 0.88 1.48 0.98 c 0.6 0.09 1.21 0.04 1.83 -0.16 c 0.58 -0.21 1.21 -0.51 1.87 -0.89 c 0.66 -0.38 1.31 -0.78 1.95 -1.2 c 0.31 -0.22 0.74 -0.51 1.28 -0.87 c 0.54 -0.36 1.12 -0.76 1.75 -1.2 c 0.65 -0.45 1.3 -0.91 1.97 -1.38 c 0.69 -0.49 1.34 -0.94 1.94 -1.36 l 6.52 -4.57 c 0.4 -0.28 0.8 -0.56 1.2 -0.85 c 0.4 -0.28 0.77 -0.57 1.12 -0.86 c 0.34 -0.29 0.64 -0.57 0.89 -0.83 c 0.25 -0.26 0.41 -0.51 0.47 -0.75 c 0.16 -0.58 0.11 -1.19 -0.13 -1.83 c -0.25 -0.64 -0.54 -1.27 -0.88 -1.9 l 0.33 -0.23 l 7.22 10.29 l -0.33 0.24 c -0.39 -0.42 -0.88 -0.85 -1.45 -1.28 M 521.73 205.11 l -19.5 -17.51 l 0.27 -0.3 c 0.58 0.37 1.2 0.69 1.86 0.96 c 0.66 0.26 1.28 0.36 1.85 0.29 c 0.21 -0.03 0.45 -0.13 0.74 -0.3 c 0.28 -0.17 0.58 -0.39 0.89 -0.65 s 0.64 -0.55 0.97 -0.86 c 0.33 -0.31 0.64 -0.62 0.93 -0.95 c 0.25 -0.28 0.6 -0.66 1.05 -1.14 c 0.45 -0.48 0.93 -1 1.46 -1.57 c 0.53 -0.57 1.07 -1.16 1.61 -1.76 c 0.56 -0.63 1.09 -1.21 1.58 -1.76 l 5.29 -5.89 c 0.33 -0.36 0.65 -0.72 0.96 -1.06 c 0.33 -0.37 0.62 -0.72 0.87 -1.06 c 0.25 -0.34 0.46 -0.66 0.61 -0.96 c 0.16 -0.3 0.24 -0.57 0.24 -0.82 c 0.02 -0.6 -0.12 -1.2 -0.43 -1.81 c -0.31 -0.61 -0.71 -1.18 -1.18 -1.71 l 0.27 -0.3 l 9.69 8.7 l -0.27 0.3 c -0.3 -0.2 -0.67 -0.42 -1.11 -0.66 c -0.44 -0.25 -0.9 -0.42 -1.39 -0.53 c -0.49 -0.11 -1 -0.1 -1.53 0.02 c -0.53 0.12 -1.05 0.45 -1.57 0.98 c -0.66 0.69 -1.25 1.33 -1.79 1.9 c -0.54 0.58 -1.07 1.15 -1.58 1.7 c -0.52 0.56 -1.05 1.14 -1.6 1.75 c -0.55 0.61 -1.15 1.29 -1.83 2.04 c -0.62 0.69 -1.18 1.32 -1.69 1.88 c -0.49 0.55 -0.97 1.08 -1.45 1.61 c -0.47 0.53 -0.95 1.07 -1.44 1.64 c -0.49 0.57 -1.04 1.19 -1.66 1.88 c -0.56 0.67 -1.09 1.31 -1.59 1.92 c -0.5 0.62 -0.78 1.15 -0.85 1.59 c -0.01 0.17 0.06 0.42 0.21 0.74 c 0.15 0.32 0.37 0.67 0.65 1.05 c 0.28 0.38 0.6 0.78 0.96 1.19 c 0.36 0.42 0.74 0.8 1.15 1.17 c 0.16 0.15 0.42 0.37 0.79 0.68 c 0.36 0.31 0.77 0.64 1.22 0.99 c 0.45 0.35 0.93 0.7 1.43 1.04 c 0.5 0.34 0.97 0.61 1.4 0.82 c 1.01 0.51 1.95 0.82 2.81 0.93 c 0.86 0.12 1.7 0.11 2.51 -0.02 c 0.81 -0.13 1.6 -0.36 2.36 -0.68 c 0.76 -0.32 1.54 -0.68 2.33 -1.07 l 0.22 0.36 l -6.74 5.25 Z M 499.41 159.67 c -0.15 1 -0.32 2.1 -0.5 3.3 c -0.18 1.2 -0.38 2.45 -0.58 3.75 c -0.21 1.3 -0.42 2.59 -0.63 3.88 l -8.78 -5.12 c 1.37 -1.06 2.65 -2.04 3.82 -2.95 c 1.17 -0.91 2.24 -1.71 3.18 -2.42 s 1.75 -1.31 2.4 -1.81 c 0.65 -0.5 1.14 -0.86 1.46 -1.09 c -0.09 0.64 -0.21 1.46 -0.37 2.46 M 502.24 187.28 l 0.25 -0.42 c -0.53 -0.34 -0.94 -0.72 -1.23 -1.14 c -0.29 -0.42 -0.5 -0.83 -0.62 -1.24 c -0.13 -0.4 -0.2 -0.77 -0.23 -1.1 c -0.03 -0.33 -0.04 -0.56 -0.03 -0.68 c 0.07 -0.77 0.14 -1.47 0.2 -2.08 c 0.06 -0.61 0.17 -1.36 0.34 -2.24 c 0.3 -1.81 0.61 -3.64 0.93 -5.48 c 0.32 -1.85 0.65 -3.75 1 -5.73 c 0.35 -1.97 0.7 -4.03 1.06 -6.16 c 0.36 -2.14 0.75 -4.39 1.16 -6.77 l -0.28 -0.17 c -0.19 0.11 -0.45 0.24 -0.78 0.4 c -0.33 0.16 -0.7 0.3 -1.12 0.43 c -0.42 0.13 -0.88 0.23 -1.37 0.29 s -1 0.06 -1.54 0 l -0.1 0.98 c -1.33 0.99 -2.76 2.05 -4.28 3.2 c -1.52 1.15 -3.04 2.28 -4.55 3.39 s -2.99 2.2 -4.43 3.26 c -1.43 1.05 -2.72 1.99 -3.86 2.81 c -1.24 0.88 -2.23 1.52 -2.96 1.91 c -0.73 0.39 -1.23 0.62 -1.49 0.69 c -0.13 0.05 -0.48 0.08 -1.07 0.09 c -0.59 0 -1.2 -0.13 -1.86 -0.42 l -0.23 0.39 l 7.51 4.38 l 0.21 -0.35 c -0.28 -0.23 -0.57 -0.47 -0.88 -0.72 c -0.31 -0.26 -0.57 -0.54 -0.79 -0.84 c -0.22 -0.3 -0.36 -0.61 -0.43 -0.92 c -0.07 -0.31 -0.02 -0.62 0.16 -0.92 c 0.3 -0.52 1.07 -1.27 2.3 -2.25 c 0.81 -0.63 1.62 -1.26 2.42 -1.88 c 0.8 -0.62 1.64 -1.27 2.51 -1.96 l 9.38 5.47 c -0.18 1.12 -0.37 2.2 -0.55 3.22 c -0.19 1.02 -0.37 1.95 -0.54 2.78 c -0.17 0.83 -0.33 1.52 -0.48 2.08 s -0.29 0.94 -0.41 1.15 c -0.19 0.33 -0.46 0.53 -0.81 0.62 c -0.35 0.08 -0.7 0.1 -1.06 0.04 c -0.36 -0.05 -0.69 -0.14 -0.99 -0.25 c -0.3 -0.11 -0.48 -0.19 -0.55 -0.23 l -0.21 0.35 l 10.3 6 Z M 473.92 171.37 l -23.81 -7.57 l 0.12 -0.39 c 0.68 0.1 1.34 0.13 1.97 0.07 c 0.63 -0.06 1.2 -0.23 1.69 -0.53 c 0.18 -0.11 0.36 -0.31 0.53 -0.58 c 0.17 -0.27 0.35 -0.6 0.54 -0.96 c 0.19 -0.37 0.36 -0.76 0.53 -1.18 s 0.31 -0.84 0.44 -1.25 c 0.11 -0.36 0.28 -0.85 0.49 -1.47 c 0.21 -0.62 0.44 -1.3 0.69 -2.03 c 0.25 -0.73 0.5 -1.49 0.74 -2.27 c 0.26 -0.8 0.49 -1.56 0.72 -2.26 l 2.41 -7.59 c 0.15 -0.47 0.29 -0.95 0.44 -1.45 c 0.14 -0.5 0.27 -0.97 0.37 -1.43 s 0.16 -0.87 0.18 -1.25 c 0.02 -0.38 -0.02 -0.67 -0.13 -0.88 c -0.26 -0.54 -0.59 -0.94 -0.99 -1.19 c -0.4 -0.26 -0.94 -0.55 -1.61 -0.88 l 0.12 -0.39 l 21.48 6.83 l 0.61 7.26 l -0.45 0.07 c -1.27 -3.29 -2.68 -5.68 -4.23 -7.17 c -0.38 -0.35 -1.13 -0.79 -2.28 -1.32 c -1.14 -0.53 -2.57 -1.07 -4.28 -1.62 c -0.54 -0.17 -1.12 -0.33 -1.71 -0.48 c -0.6 -0.15 -1.03 -0.23 -1.31 -0.27 c -0.18 0.4 -0.5 1.24 -0.95 2.52 c -0.45 1.29 -0.95 2.78 -1.49 4.5 c -0.31 0.99 -0.58 1.82 -0.79 2.49 c -0.21 0.67 -0.38 1.23 -0.51 1.66 c -0.12 0.43 -0.22 0.76 -0.3 1 c -0.07 0.21 -0.11 0.35 -0.14 0.43 c 0.13 0.04 0.39 0.12 0.78 0.25 c 0.39 0.12 0.84 0.25 1.35 0.39 c 0.51 0.13 1.03 0.26 1.55 0.38 c 0.52 0.12 0.96 0.2 1.32 0.23 c 0.83 0.07 1.56 0.03 2.18 -0.12 c 0.62 -0.15 1.16 -0.39 1.62 -0.73 c 0.46 -0.34 0.89 -0.77 1.27 -1.29 c 0.38 -0.52 0.76 -1.12 1.15 -1.8 l 0.47 0.15 l -3.9 12.26 l -0.47 -0.15 c 0.06 -0.9 0.01 -1.85 -0.14 -2.87 c -0.15 -1.02 -0.38 -1.82 -0.71 -2.41 c -0.3 -0.5 -0.7 -0.95 -1.21 -1.37 c -0.51 -0.42 -1.14 -0.78 -1.91 -1.08 c -0.38 -0.15 -0.7 -0.27 -0.95 -0.37 c -0.26 -0.1 -0.51 -0.18 -0.77 -0.27 c -0.23 -0.07 -0.49 -0.16 -0.78 -0.25 c -0.26 -0.08 -0.6 -0.19 -1.01 -0.32 c -0.17 0.35 -0.36 0.87 -0.58 1.57 c -0.22 0.7 -0.45 1.43 -0.69 2.18 c -0.11 0.34 -0.23 0.73 -0.37 1.17 c -0.14 0.44 -0.28 0.88 -0.42 1.32 c -0.13 0.42 -0.25 0.81 -0.36 1.19 c -0.11 0.38 -0.2 0.7 -0.28 0.96 c -0.24 0.84 -0.44 1.64 -0.61 2.4 c -0.17 0.76 -0.2 1.36 -0.08 1.79 c 0.12 0.44 0.59 0.87 1.43 1.31 c 0.83 0.44 1.77 0.82 2.8 1.15 c 0.44 0.14 1.01 0.31 1.71 0.5 c 0.69 0.19 1.43 0.36 2.22 0.49 c 0.86 0.16 1.69 0.2 2.49 0.13 c 0.79 -0.08 1.6 -0.28 2.43 -0.62 c 0.82 -0.34 1.66 -0.81 2.52 -1.4 c 0.86 -0.6 1.79 -1.35 2.8 -2.26 l 0.39 0.25 l -4.31 6.81 Z M 447.12 163.09 l -26.09 -2.48 l 0.04 -0.41 c 0.69 -0.04 1.37 -0.16 2.06 -0.34 c 0.69 -0.18 1.24 -0.47 1.66 -0.87 c 0.15 -0.15 0.29 -0.38 0.41 -0.68 c 0.12 -0.3 0.23 -0.65 0.33 -1.06 s 0.18 -0.82 0.26 -1.27 c 0.08 -0.44 0.15 -0.88 0.19 -1.32 c 0.04 -0.38 0.09 -0.89 0.17 -1.54 c 0.08 -0.65 0.16 -1.36 0.24 -2.13 c 0.09 -0.77 0.17 -1.56 0.25 -2.38 c 0.08 -0.84 0.15 -1.63 0.22 -2.36 l 0.75 -7.88 c 0.05 -0.49 0.09 -0.96 0.14 -1.42 c 0.05 -0.49 0.07 -0.94 0.07 -1.37 c 0 -0.42 -0.03 -0.8 -0.08 -1.13 c -0.05 -0.33 -0.15 -0.6 -0.29 -0.81 c -0.34 -0.5 -0.81 -0.9 -1.42 -1.2 c -0.61 -0.31 -1.27 -0.53 -1.97 -0.68 l 0.04 -0.41 l 12.96 1.23 l -0.04 0.41 c -0.36 0.02 -0.79 0.06 -1.28 0.12 c -0.5 0.06 -0.98 0.19 -1.43 0.4 c -0.46 0.2 -0.86 0.51 -1.22 0.93 c -0.35 0.42 -0.58 0.99 -0.68 1.72 c -0.12 0.95 -0.22 1.81 -0.31 2.6 c -0.09 0.78 -0.18 1.56 -0.26 2.31 c -0.09 0.76 -0.17 1.54 -0.24 2.36 c -0.08 0.81 -0.16 1.72 -0.26 2.72 c -0.09 0.92 -0.17 1.76 -0.24 2.52 c -0.07 0.73 -0.14 1.45 -0.21 2.15 c -0.07 0.7 -0.13 1.43 -0.19 2.18 c -0.06 0.75 -0.13 1.58 -0.22 2.5 c -0.06 0.87 -0.1 1.7 -0.13 2.49 c -0.04 0.79 0.05 1.39 0.26 1.79 c 0.1 0.15 0.3 0.3 0.61 0.47 c 0.31 0.17 0.69 0.32 1.15 0.46 c 0.45 0.14 0.95 0.27 1.48 0.39 c 0.54 0.12 1.07 0.2 1.62 0.26 c 0.22 0.02 0.56 0.05 1.04 0.08 c 0.47 0.03 1 0.05 1.57 0.07 c 0.57 0.01 1.16 0 1.76 -0.02 c 0.6 -0.02 1.14 -0.08 1.62 -0.17 c 1.11 -0.2 2.05 -0.5 2.82 -0.92 c 0.76 -0.42 1.43 -0.92 2.01 -1.51 c 0.57 -0.59 1.07 -1.24 1.5 -1.95 c 0.42 -0.71 0.84 -1.46 1.24 -2.24 l 0.39 0.16 l -2.3 8.23 Z M 400.26 142.3 c -0.74 -1.57 -1.67 -2.95 -2.78 -4.13 c -1.11 -1.18 -2.37 -2.07 -3.79 -2.66 c -1.42 -0.59 -2.99 -0.72 -4.7 -0.38 c -1.74 0.34 -3.15 1.06 -4.25 2.15 c -1.1 1.09 -1.93 2.39 -2.48 3.88 c -0.55 1.5 -0.85 3.13 -0.9 4.9 c -0.05 1.77 0.1 3.53 0.44 5.26 c 0.36 1.82 0.92 3.52 1.68 5.12 c 0.76 1.6 1.69 2.95 2.78 4.07 c 1.1 1.11 2.35 1.93 3.77 2.46 c 1.42 0.52 2.97 0.62 4.65 0.29 c 1.68 -0.33 3.06 -1.05 4.13 -2.15 c 1.07 -1.1 1.89 -2.41 2.45 -3.92 c 0.56 -1.51 0.88 -3.15 0.96 -4.91 c 0.08 -1.76 -0.04 -3.49 -0.38 -5.17 c -0.32 -1.63 -0.85 -3.23 -1.6 -4.8 M 406.79 152.24 c -0.44 1.98 -1.22 3.77 -2.33 5.37 c -1.11 1.61 -2.51 2.95 -4.19 4.04 c -1.69 1.08 -3.56 1.83 -5.61 2.24 c -2.03 0.4 -4.02 0.43 -5.98 0.08 c -1.96 -0.35 -3.74 -1.03 -5.36 -2.06 c -1.62 -1.02 -3 -2.36 -4.14 -4.01 c -1.14 -1.65 -1.93 -3.55 -2.36 -5.71 c -0.46 -2.3 -0.45 -4.44 0.02 -6.43 c 0.47 -1.99 1.27 -3.76 2.42 -5.31 c 1.15 -1.55 2.6 -2.85 4.35 -3.9 c 1.75 -1.05 3.66 -1.79 5.74 -2.2 c 2.27 -0.45 4.38 -0.45 6.35 0 s 3.7 1.22 5.22 2.32 c 1.52 1.1 2.79 2.46 3.81 4.09 c 1.02 1.63 1.72 3.41 2.1 5.33 c 0.42 2.14 0.41 4.19 -0.03 6.16 M 363.57 151.97 c -1.08 -1.14 -2.28 -2.07 -3.58 -2.8 s -2.68 -1.21 -4.12 -1.45 c -1.44 -0.25 -2.86 -0.18 -4.24 0.2 c -0.54 0.14 -1.12 0.31 -1.74 0.53 c -0.62 0.22 -1.36 0.53 -2.22 0.94 c -0.3 0.14 -0.61 0.3 -0.95 0.47 c -0.34 0.18 -0.67 0.36 -0.98 0.55 c -0.31 0.2 -0.61 0.37 -0.88 0.53 c -0.27 0.16 -0.48 0.3 -0.63 0.43 c 0.45 1.26 1.16 2.96 2.14 5.08 c 0.98 2.13 2.16 4.65 3.55 7.58 c 0.75 1.57 1.43 3.01 2.05 4.32 c 0.61 1.28 1.11 2.32 1.52 3.12 c 0.16 0.35 0.36 0.71 0.59 1.1 c 0.23 0.39 0.46 0.76 0.69 1.12 c 0.23 0.36 0.47 0.66 0.73 0.92 c 0.26 0.26 0.49 0.42 0.71 0.5 c 0.73 0.26 1.49 0.28 2.31 0.06 c 0.81 -0.22 1.55 -0.49 2.22 -0.8 c 0.61 -0.29 1.23 -0.62 1.86 -0.99 c 0.62 -0.37 1.18 -0.78 1.66 -1.22 c 2.29 -2.02 3.58 -4.45 3.85 -7.27 c 0.27 -2.82 -0.36 -5.85 -1.88 -9.07 c -0.68 -1.43 -1.56 -2.71 -2.64 -3.85 M 372.35 158.78 c 0.22 1.61 0.19 3.1 -0.09 4.47 c -0.28 1.37 -0.77 2.63 -1.46 3.77 c -0.69 1.14 -1.51 2.18 -2.46 3.11 c -0.95 0.93 -1.98 1.76 -3.11 2.49 c -1.13 0.73 -2.26 1.37 -3.39 1.9 l -13.46 6.39 l -0.18 -0.37 c 0.58 -0.37 1.1 -0.81 1.56 -1.33 c 0.46 -0.52 0.76 -1.02 0.89 -1.51 c 0.06 -0.18 0.06 -0.43 -0.02 -0.76 c -0.08 -0.32 -0.18 -0.68 -0.31 -1.08 c -0.13 -0.39 -0.28 -0.8 -0.45 -1.23 c -0.17 -0.43 -0.35 -0.84 -0.54 -1.23 c -0.16 -0.34 -0.38 -0.81 -0.65 -1.41 c -0.27 -0.6 -0.56 -1.25 -0.88 -1.95 c -0.32 -0.71 -0.65 -1.43 -1 -2.17 c -0.36 -0.76 -0.7 -1.48 -1.01 -2.14 l -3.41 -7.19 c -0.21 -0.44 -0.42 -0.89 -0.63 -1.33 c -0.21 -0.44 -0.42 -0.85 -0.64 -1.21 c -0.22 -0.36 -0.44 -0.68 -0.66 -0.95 c -0.22 -0.27 -0.44 -0.46 -0.67 -0.56 c -0.58 -0.27 -1.17 -0.36 -1.76 -0.29 c -0.6 0.07 -1.24 0.22 -1.91 0.45 l -0.17 -0.37 c 1.03 -0.49 2.52 -1.2 4.45 -2.13 c 1.94 -0.93 4.28 -2.05 7.04 -3.36 c 0.79 -0.37 1.57 -0.75 2.36 -1.12 c 0.81 -0.39 1.64 -0.73 2.49 -1.04 c 0.85 -0.31 1.72 -0.57 2.61 -0.79 c 0.89 -0.21 1.82 -0.33 2.76 -0.36 c 1.24 -0.05 2.48 0.06 3.72 0.31 c 1.24 0.26 2.42 0.7 3.54 1.33 c 1.12 0.63 2.19 1.46 3.18 2.51 c 1 1.05 1.87 2.37 2.63 3.97 c 0.87 1.84 1.42 3.57 1.65 5.18 M 326.47 161.86 c -0.21 0.67 -0.18 1.41 0.08 2.22 c 0.06 0.2 0.2 0.49 0.43 0.86 c 0.23 0.38 0.5 0.8 0.83 1.28 c 0.32 0.47 0.68 0.96 1.07 1.47 c 0.39 0.51 0.78 1 1.19 1.48 c 0.73 0.92 1.54 1.94 2.43 3.07 c 0.89 1.13 1.9 2.42 3.03 3.85 c 0.31 0.42 0.7 0.94 1.18 1.57 c 0.47 0.63 0.91 1.36 1.31 2.17 c 0.4 0.82 0.7 1.72 0.9 2.7 c 0.2 0.98 0.2 2.03 0 3.14 s -0.7 2.27 -1.47 3.46 c -0.77 1.2 -1.92 2.43 -3.45 3.71 c -1.5 1.26 -2.9 2.16 -4.2 2.71 c -1.3 0.55 -2.5 0.84 -3.61 0.87 c -1.11 0.03 -2.12 -0.13 -3.02 -0.46 s -1.69 -0.73 -2.39 -1.2 c -0.69 -0.47 -1.27 -0.94 -1.73 -1.43 c -0.46 -0.48 -0.79 -0.85 -1 -1.1 c -0.49 -0.59 -1.12 -1.35 -1.9 -2.3 c -0.77 -0.95 -1.64 -2 -2.6 -3.15 l -3.48 -4.17 c -0.31 -0.38 -0.63 -0.75 -0.94 -1.13 c -0.31 -0.38 -0.62 -0.71 -0.92 -1.01 c -0.3 -0.3 -0.59 -0.55 -0.87 -0.76 c -0.28 -0.21 -0.54 -0.33 -0.79 -0.38 c -0.59 -0.11 -1.16 -0.07 -1.72 0.14 c -0.56 0.2 -1.14 0.5 -1.73 0.89 l -0.26 -0.31 l 9.34 -7.8 l 0.26 0.31 c -0.26 0.29 -0.52 0.61 -0.78 0.97 c -0.26 0.36 -0.46 0.75 -0.58 1.15 c -0.12 0.4 -0.15 0.84 -0.07 1.31 c 0.07 0.47 0.3 0.95 0.68 1.45 c 0.43 0.56 0.82 1.05 1.16 1.48 c 0.34 0.43 0.67 0.84 1.01 1.23 c 0.33 0.4 0.68 0.82 1.05 1.25 c 0.35 0.42 0.76 0.91 1.23 1.47 c 0.59 0.71 1.13 1.35 1.6 1.91 c 0.47 0.56 0.92 1.1 1.33 1.6 c 0.4 0.48 0.79 0.94 1.18 1.38 c 0.38 0.44 0.79 0.91 1.21 1.41 c 0.95 1.09 1.95 1.96 3.03 2.6 c 1.07 0.65 2.16 1.05 3.25 1.22 c 1.1 0.17 2.19 0.08 3.3 -0.26 c 1.1 -0.34 2.18 -0.94 3.22 -1.81 c 1.19 -0.99 2.08 -1.97 2.68 -2.93 c 0.6 -0.96 0.97 -1.91 1.12 -2.86 c 0.15 -0.94 0.13 -1.86 -0.07 -2.76 c -0.2 -0.9 -0.52 -1.77 -0.95 -2.61 c -0.44 -0.84 -0.94 -1.65 -1.51 -2.44 c -0.57 -0.78 -1.15 -1.53 -1.74 -2.24 c -0.47 -0.56 -0.9 -1.07 -1.28 -1.54 c -0.38 -0.46 -0.74 -0.89 -1.07 -1.28 c -0.35 -0.42 -0.69 -0.82 -1.02 -1.22 c -0.35 -0.42 -0.71 -0.85 -1.07 -1.29 c -0.35 -0.42 -0.71 -0.84 -1.09 -1.27 c -0.38 -0.43 -0.74 -0.83 -1.09 -1.21 c -0.35 -0.38 -0.69 -0.72 -1.02 -1.03 c -0.33 -0.31 -0.62 -0.53 -0.88 -0.67 c -0.7 -0.41 -1.46 -0.58 -2.27 -0.52 c -0.82 0.06 -1.79 0.44 -2.91 1.13 l -0.26 -0.31 l 7.77 -6.49 l 0.26 0.31 c -0.69 0.75 -1.13 1.46 -1.34 2.13 M 303.04 193.89 c -1.26 -0.49 -2.56 -0.79 -3.9 -0.9 c -1.34 -0.11 -2.64 -0.03 -3.89 0.25 c -1.25 0.28 -2.44 0.76 -3.55 1.44 c -1.11 0.68 -2.08 1.57 -2.88 2.67 c -1.12 1.51 -1.77 3.11 -1.97 4.79 c -0.19 1.68 -0.03 3.34 0.5 4.96 c 0.53 1.62 1.34 3.17 2.43 4.64 s 2.39 2.76 3.88 3.85 c 1.58 1.16 3.22 2.03 4.93 2.6 c 1.71 0.57 3.38 0.82 5.01 0.74 c 1.63 -0.08 3.18 -0.49 4.65 -1.24 c 1.46 -0.74 2.73 -1.84 3.8 -3.29 c 0.84 -1.14 1.42 -2.36 1.74 -3.66 c 0.32 -1.3 0.43 -2.59 0.32 -3.87 c -0.11 -1.28 -0.4 -2.51 -0.89 -3.7 c -0.49 -1.19 -1.13 -2.23 -1.93 -3.12 l 0.29 -0.39 l 7.15 5.43 l -0.29 0.39 c -0.57 -0.01 -1.11 0.01 -1.62 0.07 c -0.52 0.06 -0.82 0.14 -0.9 0.25 c -0.03 0.04 -0.06 0.33 -0.09 0.85 c -0.03 0.52 -0.15 1.21 -0.36 2.07 c -0.21 0.86 -0.56 1.84 -1.05 2.93 c -0.49 1.1 -1.18 2.26 -2.09 3.48 c -1.5 2.04 -3.15 3.66 -4.94 4.87 c -1.79 1.21 -3.64 2 -5.56 2.37 c -1.91 0.36 -3.83 0.31 -5.76 -0.17 c -1.93 -0.48 -3.78 -1.37 -5.56 -2.68 c -0.39 -0.29 -0.82 -0.65 -1.29 -1.08 c -0.46 -0.43 -0.93 -0.92 -1.39 -1.48 c -0.46 -0.56 -0.92 -1.2 -1.35 -1.91 c -0.44 -0.71 -0.83 -1.5 -1.17 -2.36 c -0.4 -1.01 -0.69 -2.1 -0.87 -3.28 c -0.18 -1.18 -0.18 -2.42 -0.02 -3.72 c 0.17 -1.3 0.52 -2.64 1.07 -4.03 c 0.55 -1.39 1.36 -2.8 2.43 -4.25 c 0.97 -1.31 1.94 -2.37 2.91 -3.18 c 0.97 -0.81 1.84 -1.43 2.61 -1.88 c 0.77 -0.45 1.4 -0.76 1.9 -0.93 c 0.5 -0.17 0.77 -0.28 0.8 -0.32 c 0.03 -0.04 0.04 -0.16 0.03 -0.36 c -0.01 -0.19 -0.03 -0.41 -0.07 -0.66 c -0.04 -0.25 -0.09 -0.52 -0.17 -0.81 c -0.07 -0.29 -0.16 -0.57 -0.26 -0.85 l 0.27 -0.36 l 7.36 5.43 l -0.26 0.42 Z M 296.73 230.05 c 0.72 0.91 1.22 1.95 1.49 3.11 c 0.28 1.16 0.3 2.41 0.08 3.74 c -0.22 1.33 -0.66 2.71 -1.31 4.12 c -0.56 1.21 -1.11 2.22 -1.65 3.01 c -0.55 0.8 -1.06 1.43 -1.53 1.9 c -0.47 0.47 -0.86 0.81 -1.16 1.02 c -0.3 0.21 -0.47 0.34 -0.51 0.42 c -0.03 0.07 0.04 0.3 0.22 0.69 c 0.18 0.38 0.36 0.74 0.55 1.06 l -0.15 0.33 l -7.43 -3.28 l 0.17 -0.37 c 0.77 0.08 1.55 0.1 2.34 0.04 c 0.79 -0.06 1.56 -0.16 2.3 -0.31 c 0.74 -0.15 1.43 -0.36 2.06 -0.62 c 0.63 -0.26 1.15 -0.56 1.57 -0.87 c 0.42 -0.32 0.89 -0.77 1.43 -1.36 c 0.54 -0.59 0.96 -1.21 1.25 -1.85 c 0.84 -1.83 1.02 -3.54 0.54 -5.14 c -0.48 -1.6 -1.57 -2.79 -3.28 -3.57 c -0.69 -0.32 -1.35 -0.49 -1.97 -0.5 c -0.62 -0.02 -1.21 0.08 -1.77 0.29 c -0.56 0.21 -1.09 0.51 -1.6 0.9 c -0.51 0.39 -1.01 0.84 -1.51 1.33 c -0.5 0.49 -0.92 0.93 -1.27 1.3 c -0.35 0.38 -0.69 0.73 -1 1.05 s -0.63 0.65 -0.95 1 c -0.32 0.35 -0.73 0.75 -1.21 1.22 c -0.54 0.53 -1.17 0.99 -1.87 1.39 c -0.71 0.39 -1.45 0.68 -2.24 0.86 c -0.78 0.18 -1.59 0.24 -2.42 0.19 c -0.83 -0.05 -1.64 -0.26 -2.43 -0.62 c -1.34 -0.61 -2.37 -1.38 -3.11 -2.32 c -0.74 -0.93 -1.24 -1.96 -1.51 -3.07 c -0.26 -1.12 -0.3 -2.29 -0.12 -3.5 s 0.55 -2.42 1.1 -3.61 c 0.51 -1.11 1.04 -2.02 1.59 -2.73 c 0.55 -0.71 1.05 -1.26 1.51 -1.67 c 0.45 -0.4 0.83 -0.69 1.14 -0.87 c 0.31 -0.18 0.46 -0.27 0.47 -0.3 c 0.03 -0.07 -0.04 -0.3 -0.23 -0.67 c -0.19 -0.37 -0.39 -0.72 -0.59 -1.06 l 0.19 -0.41 l 6.86 3.15 l -0.19 0.41 c -0.95 -0.08 -1.94 -0.07 -2.96 0.03 c -1.02 0.1 -1.99 0.32 -2.9 0.64 c -0.92 0.33 -1.75 0.8 -2.51 1.41 c -0.76 0.61 -1.36 1.4 -1.8 2.36 c -0.35 0.77 -0.57 1.54 -0.66 2.32 c -0.09 0.78 -0.03 1.53 0.18 2.24 c 0.21 0.71 0.58 1.36 1.1 1.95 c 0.52 0.59 1.21 1.07 2.05 1.46 c 1.31 0.6 2.54 0.69 3.7 0.26 c 1.15 -0.43 2.26 -1.16 3.3 -2.2 c 0.42 -0.4 0.81 -0.79 1.16 -1.15 c 0.35 -0.36 0.69 -0.72 1.01 -1.08 c 0.33 -0.36 0.67 -0.72 1.01 -1.08 c 0.35 -0.36 0.72 -0.74 1.1 -1.13 c 1.39 -1.39 2.88 -2.28 4.48 -2.67 c 1.6 -0.39 3.28 -0.17 5.03 0.63 c 1.19 0.55 2.14 1.28 2.86 2.19 M 290.93 254.24 l -5.77 24.31 l -0.4 -0.09 c 0.05 -0.69 0.03 -1.34 -0.08 -1.97 c -0.1 -0.63 -0.32 -1.17 -0.66 -1.65 c -0.13 -0.17 -0.33 -0.33 -0.62 -0.48 c -0.28 -0.15 -0.62 -0.31 -1 -0.47 c -0.38 -0.16 -0.79 -0.3 -1.22 -0.44 c -0.43 -0.13 -0.86 -0.25 -1.28 -0.35 c -0.37 -0.09 -0.87 -0.21 -1.51 -0.38 c -0.63 -0.16 -1.32 -0.34 -2.08 -0.53 c -0.75 -0.19 -1.52 -0.38 -2.32 -0.57 c -0.82 -0.19 -1.59 -0.38 -2.3 -0.55 l -7.75 -1.84 c -0.48 -0.11 -0.97 -0.22 -1.47 -0.33 c -0.51 -0.1 -0.99 -0.19 -1.45 -0.26 c -0.46 -0.07 -0.88 -0.1 -1.26 -0.09 c -0.38 0 -0.67 0.07 -0.86 0.19 c -0.52 0.3 -0.89 0.66 -1.12 1.08 c -0.23 0.42 -0.48 0.98 -0.75 1.67 l -0.4 -0.09 l 5.2 -21.93 l 7.19 -1.15 l 0.11 0.44 c -3.18 1.51 -5.46 3.1 -6.84 4.76 c -0.32 0.4 -0.7 1.19 -1.15 2.37 c -0.45 1.18 -0.88 2.65 -1.29 4.39 c -0.13 0.56 -0.25 1.14 -0.35 1.74 c -0.1 0.6 -0.16 1.05 -0.17 1.32 c 0.41 0.15 1.27 0.41 2.59 0.76 c 1.32 0.35 2.85 0.74 4.59 1.15 c 1.01 0.24 1.85 0.44 2.54 0.6 c 0.69 0.16 1.25 0.29 1.69 0.38 c 0.44 0.09 0.78 0.16 1.02 0.22 c 0.21 0.05 0.36 0.09 0.44 0.1 c 0.03 -0.13 0.09 -0.4 0.19 -0.79 c 0.09 -0.4 0.19 -0.86 0.29 -1.38 c 0.1 -0.52 0.19 -1.05 0.27 -1.57 s 0.13 -0.97 0.13 -1.33 c 0 -0.84 -0.09 -1.56 -0.28 -2.17 c -0.19 -0.6 -0.47 -1.13 -0.85 -1.56 c -0.37 -0.44 -0.83 -0.83 -1.38 -1.17 c -0.55 -0.34 -1.17 -0.68 -1.88 -1.01 l 0.11 -0.48 l 12.51 2.97 l -0.11 0.48 c -0.9 0.01 -1.85 0.13 -2.85 0.35 c -1 0.22 -1.79 0.52 -2.35 0.89 c -0.47 0.33 -0.9 0.77 -1.28 1.31 s -0.69 1.2 -0.93 1.98 c -0.12 0.39 -0.22 0.72 -0.3 0.98 c -0.08 0.26 -0.15 0.52 -0.21 0.79 c -0.06 0.24 -0.12 0.5 -0.19 0.79 c -0.06 0.26 -0.15 0.61 -0.24 1.03 c 0.36 0.14 0.89 0.3 1.61 0.47 c 0.71 0.17 1.46 0.35 2.22 0.53 c 0.34 0.08 0.74 0.18 1.19 0.28 c 0.45 0.11 0.9 0.21 1.35 0.32 c 0.42 0.1 0.83 0.19 1.22 0.27 c 0.39 0.08 0.71 0.15 0.98 0.21 c 0.85 0.17 1.67 0.32 2.44 0.43 c 0.77 0.11 1.37 0.09 1.8 -0.06 c 0.43 -0.15 0.83 -0.66 1.2 -1.52 c 0.37 -0.86 0.68 -1.82 0.94 -2.88 c 0.11 -0.45 0.23 -1.03 0.37 -1.74 c 0.14 -0.71 0.25 -1.46 0.33 -2.25 c 0.1 -0.87 0.08 -1.7 -0.06 -2.49 c -0.13 -0.79 -0.4 -1.58 -0.8 -2.37 c -0.4 -0.79 -0.93 -1.6 -1.59 -2.41 c -0.66 -0.81 -1.48 -1.69 -2.46 -2.62 l 0.22 -0.41 l 7.12 3.79 Z" stroke-linecap="round" />
</g>
</g>
</g>
</svg>